<?xml version="1.0" encoding="UTF-8"?>
<svg width="42px" height="42px" viewBox="0 0 42 42" version="1.1" xmlns="http://www.w3.org/2000/svg" xmlns:xlink="http://www.w3.org/1999/xlink">
    <g stroke="none" stroke-width="1" fill="none" fill-rule="evenodd">
        <g id="Group" transform="translate(1.000000, -0.000000)" fill="#FF9040" fill-rule="nonzero">
            <path d="M33.2524608,5.19045265 C33.0697608,5.19045265 32.8899608,5.14471264 32.7298608,5.05737264 C28.8569608,3.11096264 24.5773608,2.09675264 20.2367608,2.09675264 C15.8961608,2.09675264 11.6164608,3.11096264 7.7436608,5.05737264 C7.4823808,5.18999264 7.1805208,5.22051264 6.8976908,5.14291264 C6.6148508,5.06530264 6.3716008,4.88520264 6.2159508,4.63817264 C6.1478608,4.51703264 6.1052508,4.38342264 6.0907008,4.24544264 C6.0761508,4.10745264 6.0899708,3.96797264 6.1313208,3.83545264 C6.1726708,3.70293264 6.2406908,3.58013264 6.3312608,3.47449264 C6.4218208,3.36885264 6.5330408,3.28257264 6.6581808,3.22089264 C10.8579608,1.10903264 15.4984608,0.00582397887 20.2059608,2.2638892e-05 C24.9134608,-0.00573306113 29.5566608,1.08608264 33.7616608,3.18762264 C33.8911608,3.24452264 34.0071608,3.32778264 34.1022608,3.43202264 C34.1972608,3.53625264 34.2692608,3.65914264 34.3134608,3.79273264 C34.3576608,3.92631264 34.3731608,4.06763264 34.3588608,4.20753264 C34.3446608,4.34744264 34.3009608,4.48281264 34.2307608,4.60491264 C34.1350608,4.78030264 33.9939608,4.92709264 33.8219608,5.03005264 C33.6499608,5.13301264 33.4532608,5.18839264 33.2524608,5.19045265 Z M1.1436808,16.2160226 C0.906380803,16.2163226 0.673920803,16.1494226 0.473630803,16.0230226 C0.354670803,15.9482226 0.252630803,15.8498226 0.173938803,15.7338226 C0.0952468029,15.6179226 0.0416138029,15.4870226 0.0164288029,15.3495226 C-0.00875719711,15.2119226 -0.00495019711,15.0706226 0.0276108029,14.9346226 C0.0601728029,14.7986226 0.120780803,14.6708226 0.205610803,14.5592226 C2.4187008,11.6307226 5.3101308,9.27520264 8.6348308,7.69233264 C12.2556608,6.01261264 16.2034608,5.14206264 20.1998608,5.14206264 C24.1963608,5.14206264 28.1441608,6.01261264 31.7649608,7.69233264 C35.0768608,9.25919264 37.9625608,11.5910226 40.1807608,14.4926226 C40.2654608,14.6052226 40.3257608,14.7339226 40.3578608,14.8707226 C40.3899608,15.0075226 40.3932608,15.1495226 40.3674608,15.2876226 C40.3416608,15.4257226 40.2872608,15.5570226 40.2078608,15.6733226 C40.1284608,15.7896226 40.0257608,15.8883226 39.9060608,15.9632226 C39.6569608,16.1221226 39.3563608,16.1809226 39.0651608,16.1278226 C38.7739608,16.0747226 38.5140608,15.9135226 38.3381608,15.6770226 C36.3348608,13.0480226 33.7272608,10.9331226 30.7330608,9.50885264 C27.4318608,7.97857264 23.8329608,7.18550264 20.1898608,7.18550264 C16.5466608,7.18550264 12.9477608,7.97857264 9.6465608,9.50885264 C6.6402608,10.9622226 4.0279708,13.1091226 2.0281408,15.7702226 C1.9336808,15.9141226 1.8029808,16.0309226 1.6490008,16.1091226 C1.4950208,16.1873226 1.3231308,16.2242226 1.1503808,16.2160226 L1.1436808,16.2160226 Z M15.1678608,41.5608809 C15.0212608,41.5623226 14.8759608,41.5348226 14.7401608,41.4800226 C14.6044608,41.4251226 14.4810608,41.3441226 14.3771608,41.2415226 C12.5703608,39.6610226 11.0476608,37.7867226 9.8744608,35.6987226 C8.2765708,32.9286226 7.4616908,29.7814226 7.5158508,26.5895226 C7.5158508,20.3547226 13.2112608,15.2778226 20.2467608,15.2778226 C27.2823608,15.2778226 32.9107608,20.3348226 32.9107608,26.5895226 C32.9107608,26.8860226 32.7921608,27.1703226 32.5810608,27.3799226 C32.3699608,27.5896226 32.0835608,27.7073226 31.7850608,27.7073226 C31.4864608,27.7073226 31.2001608,27.5896226 30.9890608,27.3799226 C30.7779608,27.1703226 30.6593608,26.8860226 30.6593608,26.5895226 C30.6593608,21.4992226 25.9690608,17.3605226 20.2199608,17.3605226 C14.4709608,17.3605226 9.7605608,21.4992226 9.7605608,26.5895226 C9.7083608,29.4195226 10.4284608,32.2108226 11.8443608,34.6674226 C12.9348608,36.5775226 14.3389608,38.2935226 15.9986608,39.7443226 C16.1002608,39.8412226 16.1809608,39.9574226 16.2361608,40.0861226 C16.2913608,40.2147226 16.3198608,40.3531226 16.3198608,40.4929226 C16.3198608,40.6327226 16.2913608,40.7711226 16.2361608,40.8997226 C16.1809608,41.0284226 16.1002608,41.1446226 15.9986608,41.2415226 C15.7664608,41.4389226 15.4733608,41.5516226 15.1678608,41.5608809 Z M31.2489608,37.6683226 C28.7977608,37.7305226 26.3811608,37.0832226 24.2938608,35.8052226 C22.6889608,34.8441226 21.3555608,33.4947226 20.4181608,31.8831226 C19.4807608,30.2715226 18.9699608,28.4503226 18.9334608,26.5895226 C18.9334608,26.2948226 19.0513608,26.0121226 19.2612608,25.8037226 C19.4710608,25.5954226 19.7556608,25.4783226 20.0524608,25.4783226 C20.3492608,25.4783226 20.6338608,25.5954226 20.8437608,25.8037226 C21.0535608,26.0121226 21.1714608,26.2948226 21.1714608,26.5895226 C21.2022608,28.1014226 21.6200608,29.5806226 22.3855608,30.8879226 C23.1509608,32.1951226 24.2389608,33.2874226 25.5468608,34.0619226 C27.2606608,35.0999226 29.2426608,35.6180226 31.2489608,35.5523226 C32.0302608,35.5401226 32.8096608,35.4711226 33.5807608,35.3461226 C33.7255608,35.3139226 33.8754608,35.3106226 34.0215608,35.3364226 C34.1676608,35.3623226 34.3070608,35.4167226 34.4317608,35.4966226 C34.5565608,35.5765226 34.6639608,35.6802226 34.7479608,35.8017226 C34.8319608,35.9232226 34.8906608,36.0601226 34.9208608,36.2044226 C34.9435608,36.3450226 34.9373608,36.4888226 34.9027608,36.6270226 C34.8681608,36.7652226 34.8058608,36.8950226 34.7195608,37.0087226 C34.6331608,37.1224226 34.5246608,37.2176226 34.4003608,37.2887226 C34.2760608,37.3597226 34.1385608,37.4051226 33.9962608,37.4221226 C33.1108608,37.5754226 32.2146608,37.6578226 31.3160608,37.6683226 L31.2489608,37.6683226 Z M26.7462608,42.0000226 C26.6462608,41.9991226 26.5468608,41.9834226 26.4514608,41.9534226 C23.3221608,41.2615226 20.4395608,39.7417226 18.1093608,37.5552226 C16.5774608,36.1613226 15.3530608,34.4672226 14.5134608,32.5798226 C13.6739608,30.6925226 13.2373608,28.6528226 13.2313608,26.5895226 C13.2313608,23.1893226 16.3336608,20.4080226 20.1462608,20.4080226 C23.9588608,20.4080226 27.0544608,23.1893226 27.0544608,26.5895226 C27.0544608,28.8252226 29.1383608,30.6617226 31.7448608,30.6617226 C34.3513608,30.6617226 36.4351608,28.8252226 36.4351608,26.5895226 C36.4351608,18.6647226 29.1383608,12.2436226 20.1730608,12.2436226 C13.8009608,12.2436226 7.9647808,15.5706226 5.3381908,20.7074226 C4.4293508,22.5353226 3.9700808,24.5511226 3.9980908,26.5895226 C3.9913608,29.1899226 4.5037708,31.7658226 5.5057008,34.1683226 C5.5546308,34.2991226 5.5759808,34.4385226 5.5684008,34.5778226 C5.5608308,34.7171226 5.5245008,34.8534226 5.4616608,34.9782226 C5.3988308,35.1030226 5.3108408,35.2136226 5.2031508,35.3032226 C5.0954608,35.3928226 4.9703708,35.4595226 4.8356508,35.4991226 C4.5606508,35.6083226 4.2536408,35.6069226 3.9797008,35.4951226 C3.7057608,35.3833226 3.4864408,35.1699226 3.3682408,34.9003226 C2.3021608,32.2573226 1.7540808,29.4366226 1.7534208,26.5895226 C1.7131208,24.2332226 2.2343008,21.9008226 3.2744308,19.7825226 C6.2561608,13.9270226 12.8762608,10.1277226 20.1194608,10.1277226 C30.3243608,10.1277226 38.6195608,17.4936226 38.6195608,26.5695226 C38.6195608,29.9697226 35.5306608,32.7377226 31.7113608,32.7377226 C27.8920608,32.7377226 24.8098608,29.9697226 24.8098608,26.5695226 C24.8098608,24.3205226 22.7192608,22.4973226 20.1194608,22.4973226 C17.5196608,22.4973226 15.4291608,24.3205226 15.4291608,26.5695226 C15.4345608,28.3545226 15.8151608,30.1186226 16.5467608,31.7491226 C17.2782608,33.3796226 18.3444608,34.8404226 19.6772608,36.0381226 C21.7193608,37.9700226 24.2539608,39.3113226 27.0075608,39.9173226 C27.1450608,39.9477226 27.2749608,40.0052226 27.3896608,40.0864226 C27.5042608,40.1676226 27.6013608,40.2709226 27.6750608,40.3900226 C27.7488608,40.5091226 27.7977608,40.6418226 27.8188608,40.7800226 C27.8400608,40.9183226 27.8330608,41.0594226 27.7982608,41.1949226 C27.7353608,41.4247226 27.5985608,41.6278226 27.4086608,41.7731226 C27.2186608,41.9185226 26.9860608,41.9982226 26.7462608,42.0000226 Z" id="Shape"></path>
        </g>
    </g>
</svg>
