<svg width="42" height="42" xmlns="http://www.w3.org/2000/svg"><path d="M34.25 5.19a1.1 1.1 0 0 1-.52-.13 27.82 27.82 0 0 0-24.99 0 1.18 1.18 0 0 1-1.52-.42 1.02 1.02 0 0 1 .44-1.42 30.24 30.24 0 0 1 27.1-.03 1.01 1.01 0 0 1 .6 1.02 1.12 1.12 0 0 1-1.1.98ZM2.15 16.22c-.24 0-.48-.07-.68-.2a1.01 1.01 0 0 1-.44-1.09 1 1 0 0 1 .18-.37 22.9 22.9 0 0 1 8.42-6.87 27.48 27.48 0 0 1 23.13 0c3.32 1.57 6.2 3.9 8.42 6.8a1.01 1.01 0 0 1-.27 1.47 1.17 1.17 0 0 1-1.57-.28c-2-2.63-4.61-4.75-7.6-6.17a25.07 25.07 0 0 0-21.1 0c-3 1.45-5.61 3.6-7.61 6.26a.99.99 0 0 1-.88.45Zm14.02 25.34a1.11 1.11 0 0 1-.8-.32 21.1 21.1 0 0 1-4.5-5.54 17.63 17.63 0 0 1-2.35-9.11c0-6.24 5.7-11.31 12.73-11.31S33.9 20.33 33.9 26.59a1.11 1.11 0 0 1-1.12 1.12 1.13 1.13 0 0 1-1.13-1.12c0-5.1-4.7-9.23-10.44-9.23-5.75 0-10.46 4.14-10.46 9.23a15.6 15.6 0 0 0 2.08 8.08A19.75 19.75 0 0 0 17 39.74a1.04 1.04 0 0 1 0 1.5c-.23.2-.53.31-.83.32Zm16.08-3.9a12.7 12.7 0 0 1-6.96-1.85 11.05 11.05 0 0 1-5.36-9.22 1.1 1.1 0 0 1 1.12-1.11 1.12 1.12 0 0 1 1.12 1.11 8.86 8.86 0 0 0 4.38 7.47 10.35 10.35 0 0 0 5.7 1.5c.78-.02 1.56-.09 2.33-.21a1.13 1.13 0 0 1 1.17.45c.08.12.14.26.17.4a1.05 1.05 0 0 1-.52 1.09c-.12.07-.26.12-.4.13-.89.16-1.79.24-2.68.25h-.07ZM27.75 42a17.81 17.81 0 0 1-8.64-4.44 14.93 14.93 0 0 1-4.88-10.97c0-3.4 3.1-6.18 6.92-6.18 3.8 0 6.9 2.78 6.9 6.18 0 2.24 2.09 4.07 4.7 4.07 2.6 0 4.69-1.83 4.69-4.07 0-7.93-7.3-14.35-16.27-14.35-6.37 0-12.2 3.33-14.83 8.47A12.81 12.81 0 0 0 5 26.59c0 2.6.5 5.18 1.5 7.58a1.01 1.01 0 0 1-.66 1.33 1.15 1.15 0 0 1-1.47-.6 22.23 22.23 0 0 1-1.62-8.31c-.04-2.36.48-4.69 1.52-6.8 2.99-5.86 9.6-9.66 16.85-9.66 10.2 0 18.5 7.36 18.5 16.44 0 3.4-3.09 6.17-6.9 6.17-3.83 0-6.91-2.77-6.91-6.17 0-2.25-2.1-4.07-4.7-4.07-2.59 0-4.68 1.82-4.68 4.07a12.74 12.74 0 0 0 4.25 9.47A15.52 15.52 0 0 0 28 39.92a1.06 1.06 0 0 1 .8.86 1.04 1.04 0 0 1-.4 1 1.1 1.1 0 0 1-.66.22Z" fill="#FF9040" fill-rule="nonzero"/></svg>