<svg width="19" height="17" xmlns="http://www.w3.org/2000/svg"><path d="M2.74 16.66h13.52c1.5 0 2.43-1.08 2.43-2.43 0-.4-.1-.82-.33-1.2L11.6 1.23A2.4 2.4 0 0 0 9.5 0a2.4 2.4 0 0 0-2.09 1.23L.64 13.04c-.22.38-.33.79-.33 1.19 0 1.35.93 2.43 2.43 2.43Zm0-1.38c-.6 0-1-.5-1-1.05 0-.16.02-.34.1-.53L8.63 1.9c.19-.34.54-.5.88-.5.35 0 .68.16.87.5l6.76 11.81c.1.18.14.36.14.52 0 .54-.42 1.05-1.03 1.05H2.74Zm6.76-4.55c.43 0 .66-.24.67-.7l.13-4.63c.01-.45-.34-.79-.8-.79-.48 0-.81.33-.8.78l.1 4.64c.02.45.26.7.7.7Zm0 2.86c.5 0 .95-.4.95-.92a.93.93 0 0 0-.95-.91c-.52 0-.95.4-.95.91 0 .5.44.92.95.92Z" fill="#FF9040" fill-rule="nonzero"/></svg>