<?xml version="1.0" encoding="UTF-8"?>
<svg width="19px" height="17px" viewBox="0 0 19 17" version="1.1" xmlns="http://www.w3.org/2000/svg" xmlns:xlink="http://www.w3.org/1999/xlink">
    <g stroke="none" stroke-width="1" fill="none" fill-rule="evenodd">
        <path d="M2.73578,16.6553 L16.2621,16.6553 C17.7563,16.6553 18.6879,15.583 18.6879,14.2295 C18.6879,13.8252 18.5825,13.4121 18.3627,13.0342 L11.5864,1.23047 C11.1293,0.430664 10.3207,5.32907052e-15 9.50336,5.32907052e-15 C8.67719,5.32907052e-15 7.86859,0.430664 7.41156,1.23047 L0.635195,13.043 C0.415469,13.4209 0.31,13.8252 0.31,14.2295 C0.31,15.583 1.241641,16.6553 2.73578,16.6553 Z M2.74457,15.2754 C2.13812,15.2754 1.73383,14.7744 1.73383,14.2295 C1.73383,14.0713 1.7602,13.8867 1.84809,13.7021 L8.61566,1.89844 C8.80902,1.56445 9.16059,1.40625 9.50336,1.40625 C9.84613,1.40625 10.18012,1.55566 10.3735,1.89844 L17.1323,13.7109 C17.2289,13.8867 17.2729,14.0713 17.2729,14.2295 C17.2729,14.7744 16.851,15.2754 16.2446,15.2754 L2.74457,15.2754 Z M9.50336,10.7314 C9.92523,10.7314 10.16254,10.4854 10.17133,10.0283 L10.30316,5.39648 C10.312,4.94824 9.96039,4.61426 9.49457,4.61426 C9.01996,4.61426 8.68598,4.93945 8.69477,5.3877 L8.80902,10.0283 C8.81781,10.4766 9.06391,10.7314 9.50336,10.7314 Z M9.50336,13.5879 C10.00434,13.5879 10.4526,13.1836 10.4526,12.6738 C10.4526,12.1553 10.01312,11.7598 9.50336,11.7598 C8.9848,11.7598 8.55414,12.1641 8.55414,12.6738 C8.55414,13.1748 8.99359,13.5879 9.50336,13.5879 Z" id="Shape" fill="#FF9040" fill-rule="nonzero"></path>
    </g>
</svg>
